<?xml version="1.0" encoding="utf-8"?>
<svg width="100%" height="100%" viewBox="-210.0 -210.0 420.0 420.0" preserveAspectRatio="xMidYMid meet" version="1.1" baseProfile="full" xmlns="http://www.w3.org/2000/svg">
<g style="stroke:#fff; stroke-width: 0.9016994374947429; stroke-linejoin: round;">
<path fill="#0035f3" fill-opacity="0.6" d="m-76.39320225002103,0.0 l-11.803398874989483,8.575671257690495 l-11.803398874989483,-8.575671257690495 l11.803398874989483,-8.575671257690495z"/>
<path fill="#08f" fill-opacity="0.6" d="m-88.19660112501052,-8.575671257690495 l11.803398874989483,8.575671257690495 l-4.508497187473708,-13.875727571288776 l-11.803398874989483,-8.575671257690495z"/>
<path fill="#08f" fill-opacity="0.6" d="m-88.19660112501052,8.575671257690495 l11.803398874989483,-8.575671257690495 l-4.508497187473708,13.875727571288776 l-11.803398874989483,8.575671257690495z"/>
<path fill="#0035f3" fill-opacity="0.6" d="m-61.803398874989476,-27.75145514257756 l-4.508497187473715,13.875727571288781 l-14.58980337503155,1.7763568394002505e-15 l4.508497187473715,-13.875727571288781z"/>
<path fill="#0035f3" fill-opacity="0.6" d="m-61.80339887498948,-0.0 l-4.508497187473708,-13.875727571288778 l-14.58980337503155,1.7763568394002505e-15 l4.508497187473708,13.875727571288778z"/>
<path fill="#0035f3" fill-opacity="0.6" d="m-61.80339887498948,0.0 l-4.508497187473708,13.875727571288778 l-14.58980337503155,-1.7763568394002505e-15 l4.508497187473708,-13.875727571288778z"/>
<path fill="#0035f3" fill-opacity="0.6" d="m-61.803398874989476,27.75145514257756 l-4.508497187473715,-13.875727571288781 l-14.58980337503155,-1.7763568394002505e-15 l4.508497187473715,13.875727571288781z"/>
<path fill="#08f" fill-opacity="0.6" d="m-66.31189606246319,-13.875727571288778 l4.508497187473715,-13.875727571288781 l4.508497187473715,13.875727571288783 l-4.508497187473715,13.875727571288781z"/>
<path fill="#08f" fill-opacity="0.6" d="m-66.31189606246319,13.875727571288778 l4.508497187473715,13.875727571288781 l4.508497187473715,-13.875727571288783 l-4.508497187473715,-13.875727571288781z"/>
<path fill="#08f" fill-opacity="0.6" d="m-49.99999999999999,-8.575671257690495 l-11.80339887498949,8.575671257690495 l4.508497187473722,-13.875727571288776 l11.80339887498949,-8.575671257690495z"/>
<path fill="#08f" fill-opacity="0.6" d="m-49.99999999999999,8.575671257690495 l-11.80339887498949,-8.575671257690495 l4.508497187473722,13.875727571288776 l11.80339887498949,8.575671257690495z"/>
<path fill="#0035f3" fill-opacity="0.6" d="m-49.999999999999986,-36.32712640026805 l-11.80339887498949,8.575671257690491 l4.508497187473715,13.875727571288783 l11.80339887498949,-8.575671257690491z"/>
<path fill="#0035f3" fill-opacity="0.6" d="m-49.999999999999986,36.32712640026805 l-11.80339887498949,-8.575671257690491 l4.508497187473715,-13.875727571288783 l11.80339887498949,8.575671257690491z"/>
<path fill="#0035f3" fill-opacity="0.6" d="m-61.80339887498948,0.0 l11.80339887498949,8.575671257690495 l11.803398874989476,-8.575671257690495 l-11.80339887498949,-8.575671257690495z"/>
<path fill="#0035f3" fill-opacity="0.6" d="m-45.49150281252628,-22.451398828979276 l-4.508497187473715,13.875727571288781 l11.803398874989476,8.575671257690495 l4.508497187473715,-13.875727571288781z"/>
<path fill="#0035f3" fill-opacity="0.6" d="m-45.49150281252628,22.451398828979276 l-4.508497187473715,-13.875727571288781 l11.803398874989476,-8.575671257690495 l4.508497187473715,13.875727571288781z"/>
<path fill="#0035f3" fill-opacity="0.6" d="m-49.999999999999986,-36.32712640026805 l14.589803375031536,0.0 l4.508497187473708,13.875727571288785 l-14.589803375031536,-0.0z"/>
<path fill="#0035f3" fill-opacity="0.6" d="m-49.999999999999986,36.32712640026805 l14.589803375031536,0.0 l4.508497187473708,-13.875727571288785 l-14.589803375031536,-0.0z"/>
<path fill="#08f" fill-opacity="0.6" d="m-35.41019662496845,-36.32712640026805 l11.803398874989487,-8.575671257690495 l-14.58980337503154,0.0 l-11.803398874989487,8.575671257690495z"/>
<path fill="#08f" fill-opacity="0.6" d="m-35.41019662496845,36.32712640026805 l11.803398874989487,8.575671257690495 l-14.58980337503154,0.0 l-11.803398874989487,-8.575671257690495z"/>
<path fill="#08f" fill-opacity="0.6" d="m-33.6881039375368,-13.875727571288774 l14.58980337503155,-7.105427357601002e-15 l-11.80339887498949,-8.575671257690484 l-14.58980337503155,7.105427357601002e-15z"/>
<path fill="#08f" fill-opacity="0.6" d="m-33.6881039375368,13.875727571288774 l14.58980337503155,7.105427357601002e-15 l-11.80339887498949,8.575671257690484 l-14.58980337503155,-7.105427357601002e-15z"/>
<path fill="#0035f3" fill-opacity="0.6" d="m-19.09830056250525,-13.875727571288781 l-4.508497187473715,13.875727571288781 l-14.58980337503155,0.0 l4.508497187473715,-13.875727571288781z"/>
<path fill="#0035f3" fill-opacity="0.6" d="m-19.09830056250525,13.875727571288781 l-4.508497187473715,-13.875727571288781 l-14.58980337503155,0.0 l4.508497187473715,13.875727571288781z"/>
<path fill="#0035f3" fill-opacity="0.6" d="m-19.098300562505248,-58.778525229247315 l-4.508497187473715,13.87572757128877 l-14.58980337503154,0.0 l4.508497187473715,-13.87572757128877z"/>
<path fill="#0035f3" fill-opacity="0.6" d="m-19.098300562505248,58.778525229247315 l-4.508497187473715,-13.87572757128877 l-14.58980337503154,0.0 l4.508497187473715,13.87572757128877z"/>
<path fill="#0035f3" fill-opacity="0.6" d="m-23.606797749978963,-44.902797657958544 l4.508497187473711,13.875727571288785 l-11.80339887498949,8.575671257690495 l-4.508497187473711,-13.875727571288785z"/>
<path fill="#0035f3" fill-opacity="0.6" d="m-23.606797749978963,44.902797657958544 l4.508497187473711,-13.875727571288785 l-11.80339887498949,-8.575671257690495 l-4.508497187473711,13.875727571288785z"/>
<path fill="#08f" fill-opacity="0.6" d="m-23.606797749978966,0.0 l4.508497187473715,13.875727571288781 l4.508497187473708,-13.875727571288781 l-4.508497187473715,-13.875727571288781z"/>
<path fill="#0035f3" fill-opacity="0.6" d="m-7.294901687515765,-22.451398828979276 l-11.803398874989487,-8.575671257690484 l-11.80339887498949,8.575671257690495 l11.803398874989487,8.575671257690484z"/>
<path fill="#0035f3" fill-opacity="0.6" d="m-7.294901687515765,22.451398828979276 l-11.803398874989487,8.575671257690484 l-11.80339887498949,-8.575671257690495 l11.803398874989487,-8.575671257690484z"/>
<path fill="#08f" fill-opacity="0.6" d="m-19.09830056250525,-31.02707008666976 l-4.508497187473711,-13.875727571288785 l11.803398874989487,8.575671257690502 l4.508497187473711,13.875727571288785z"/>
<path fill="#08f" fill-opacity="0.6" d="m-19.09830056250525,31.02707008666976 l-4.508497187473711,13.875727571288785 l11.803398874989487,-8.575671257690502 l4.508497187473711,-13.875727571288785z"/>
<path fill="#0035f3" fill-opacity="0.6" d="m-19.098300562505248,-58.778525229247315 l11.803398874989483,8.575671257690487 l-4.508497187473711,13.875727571288785 l-11.803398874989483,-8.575671257690487z"/>
<path fill="#0035f3" fill-opacity="0.6" d="m-19.098300562505248,58.778525229247315 l11.803398874989483,-8.575671257690487 l-4.508497187473711,-13.875727571288785 l-11.803398874989483,8.575671257690487z"/>
<path fill="#0035f3" fill-opacity="0.6" d="m-7.294901687515765,-22.451398828979276 l4.508497187473713,13.87572757128878 l-11.803398874989492,8.575671257690496 l-4.508497187473713,-13.87572757128878z"/>
<path fill="#0035f3" fill-opacity="0.6" d="m-7.294901687515765,22.451398828979276 l4.508497187473713,-13.87572757128878 l-11.803398874989492,-8.575671257690496 l-4.508497187473713,13.87572757128878z"/>
<path fill="#08f" fill-opacity="0.6" d="m-2.786404500042053,-36.32712640026804 l-4.508497187473711,13.875727571288767 l-4.508497187473711,-13.875727571288767 l4.508497187473711,-13.875727571288767z"/>
<path fill="#08f" fill-opacity="0.6" d="m-2.786404500042053,36.32712640026804 l-4.508497187473711,-13.875727571288767 l-4.508497187473711,13.875727571288767 l4.508497187473711,13.875727571288767z"/>
<path fill="#0035f3" fill-opacity="0.6" d="m-19.098300562505248,-58.778525229247315 l11.803398874989483,8.575671257690487 l11.803398874989487,-8.57567125769048 l-11.803398874989483,-8.575671257690487z"/>
<path fill="#0035f3" fill-opacity="0.6" d="m-19.098300562505248,58.778525229247315 l11.803398874989483,-8.575671257690487 l11.803398874989487,8.57567125769048 l-11.803398874989483,8.575671257690487z"/>
<path fill="#0035f3" fill-opacity="0.6" d="m9.016994374947437,0.0 l-11.803398874989488,8.575671257690496 l-11.803398874989492,-8.575671257690496 l11.803398874989488,-8.575671257690496z"/>
<path fill="#08f" fill-opacity="0.6" d="m-2.786404500042052,-8.575671257690496 l11.803398874989488,8.575671257690496 l-4.508497187473714,-13.875727571288781 l-11.803398874989488,-8.575671257690496z"/>
<path fill="#08f" fill-opacity="0.6" d="m-2.786404500042052,8.575671257690496 l11.803398874989488,-8.575671257690496 l-4.508497187473714,13.875727571288781 l-11.803398874989488,8.575671257690496z"/>
<path fill="#0035f3" fill-opacity="0.6" d="m-7.294901687515765,-67.35419648693781 l14.589803375031547,1.4210854715202004e-14 l4.508497187473711,-13.875727571288778 l-14.589803375031547,-1.4210854715202004e-14z"/>
<path fill="#0035f3" fill-opacity="0.6" d="m-7.294901687515765,-50.20285397155683 l4.508497187473711,13.875727571288785 l14.589803375031547,-7.105427357601002e-15 l-4.508497187473711,-13.875727571288785z"/>
<path fill="#0035f3" fill-opacity="0.6" d="m-7.294901687515765,-22.451398828979276 l14.589803375031547,3.552713678800501e-15 l4.508497187473711,-13.875727571288778 l-14.589803375031547,-3.552713678800501e-15z"/>
<path fill="#0035f3" fill-opacity="0.6" d="m-7.294901687515765,22.451398828979276 l14.589803375031547,-3.552713678800501e-15 l4.508497187473711,13.875727571288778 l-14.589803375031547,3.552713678800501e-15z"/>
<path fill="#0035f3" fill-opacity="0.6" d="m-7.294901687515765,50.20285397155683 l4.508497187473711,-13.875727571288785 l14.589803375031547,7.105427357601002e-15 l-4.508497187473711,13.875727571288785z"/>
<path fill="#0035f3" fill-opacity="0.6" d="m-7.294901687515765,67.35419648693781 l14.589803375031547,-1.4210854715202004e-14 l4.508497187473711,13.875727571288778 l-14.589803375031547,1.4210854715202004e-14z"/>
<path fill="#08f" fill-opacity="0.6" d="m7.294901687515782,-67.3541964869378 l-14.589803375031547,-1.4210854715202004e-14 l11.803398874989487,8.575671257690502 l14.589803375031547,1.4210854715202004e-14z"/>
<path fill="#08f" fill-opacity="0.6" d="m7.294901687515782,-50.20285397155682 l11.803398874989483,-8.575671257690487 l-14.589803375031543,0.0 l-11.803398874989483,8.575671257690487z"/>
<path fill="#08f" fill-opacity="0.6" d="m7.294901687515782,-22.451398828979272 l-14.589803375031547,-3.552713678800501e-15 l11.803398874989487,8.575671257690495 l14.589803375031547,3.552713678800501e-15z"/>
<path fill="#08f" fill-opacity="0.6" d="m7.294901687515782,22.451398828979272 l-14.589803375031547,3.552713678800501e-15 l11.803398874989487,-8.575671257690495 l14.589803375031547,-3.552713678800501e-15z"/>
<path fill="#08f" fill-opacity="0.6" d="m7.294901687515782,50.20285397155682 l11.803398874989483,8.575671257690487 l-14.589803375031543,0.0 l-11.803398874989483,-8.575671257690487z"/>
<path fill="#08f" fill-opacity="0.6" d="m7.294901687515782,67.3541964869378 l-14.589803375031547,1.4210854715202004e-14 l11.803398874989487,-8.575671257690502 l14.589803375031547,-1.4210854715202004e-14z"/>
<path fill="#0035f3" fill-opacity="0.6" d="m23.606797749978988,-0.0 l-14.58980337503155,0.0 l-4.508497187473714,-13.875727571288781 l14.58980337503155,-0.0z"/>
<path fill="#0035f3" fill-opacity="0.6" d="m23.606797749978988,0.0 l-14.58980337503155,0.0 l-4.508497187473714,13.875727571288781 l14.58980337503155,-0.0z"/>
<path fill="#08f" fill-opacity="0.6" d="m19.098300562505266,-86.52998037182485 l4.508497187473708,13.875727571288763 l-11.80339887498948,-8.575671257690487 l-4.508497187473708,-13.875727571288763z"/>
<path fill="#0035f3" fill-opacity="0.6" d="m19.098300562505266,-58.77852522924731 l-11.803398874989483,-8.575671257690487 l4.508497187473711,-13.875727571288778 l11.803398874989483,8.575671257690487z"/>
<path fill="#0035f3" fill-opacity="0.6" d="m19.098300562505266,-58.77852522924731 l-11.803398874989483,8.575671257690487 l4.508497187473711,13.87572757128877 l11.803398874989483,-8.575671257690487z"/>
<path fill="#0035f3" fill-opacity="0.6" d="m19.098300562505266,58.77852522924731 l-11.803398874989483,-8.575671257690487 l4.508497187473711,-13.87572757128877 l11.803398874989483,8.575671257690487z"/>
<path fill="#0035f3" fill-opacity="0.6" d="m19.098300562505266,58.77852522924731 l-11.803398874989483,8.575671257690487 l4.508497187473711,13.875727571288778 l11.803398874989483,-8.575671257690487z"/>
<path fill="#08f" fill-opacity="0.6" d="m19.098300562505266,86.52998037182485 l4.508497187473708,-13.875727571288763 l-11.80339887498948,8.575671257690487 l-4.508497187473708,13.875727571288763z"/>
<path fill="#0035f3" fill-opacity="0.6" d="m19.098300562505273,-13.875727571288776 l-11.80339887498949,-8.575671257690496 l4.508497187473711,-13.875727571288778 l11.80339887498949,8.575671257690496z"/>
<path fill="#0035f3" fill-opacity="0.6" d="m19.098300562505273,13.875727571288776 l-11.80339887498949,8.575671257690496 l4.508497187473711,13.875727571288778 l11.80339887498949,-8.575671257690496z"/>
<path fill="#0035f3" fill-opacity="0.6" d="m35.410196624968464,-36.32712640026804 l-11.803398874989483,-8.575671257690495 l-11.803398874989487,8.575671257690487 l11.803398874989483,8.575671257690495z"/>
<path fill="#0035f3" fill-opacity="0.6" d="m35.410196624968464,36.32712640026804 l-11.803398874989483,8.575671257690495 l-11.803398874989487,-8.575671257690487 l11.803398874989483,-8.575671257690495z"/>
<path fill="#0035f3" fill-opacity="0.6" d="m23.606797749978973,-72.65425280053609 l-4.508497187473708,-13.875727571288763 l11.80339887498948,-8.575671257690502 l4.508497187473708,13.875727571288763z"/>
<path fill="#0035f3" fill-opacity="0.6" d="m23.606797749978973,72.65425280053609 l-4.508497187473708,13.875727571288763 l11.80339887498948,8.575671257690502 l4.508497187473708,-13.875727571288763z"/>
<path fill="#08f" fill-opacity="0.6" d="m23.60679774997898,-44.90279765795854 l-4.508497187473715,-13.87572757128877 l11.803398874989487,8.575671257690495 l4.508497187473715,13.87572757128877z"/>
<path fill="#08f" fill-opacity="0.6" d="m23.60679774997898,-27.751455142577555 l-4.508497187473708,13.87572757128878 l11.80339887498948,-8.5756712576905 l4.508497187473708,-13.87572757128878z"/>
<path fill="#0035f3" fill-opacity="0.6" d="m23.606797749978988,-0.0 l11.803398874989476,-8.575671257690495 l-4.508497187473711,-13.875727571288781 l-11.803398874989476,8.575671257690495z"/>
<path fill="#0035f3" fill-opacity="0.6" d="m23.606797749978988,0.0 l11.803398874989476,8.575671257690495 l-4.508497187473711,13.875727571288781 l-11.803398874989476,-8.575671257690495z"/>
<path fill="#08f" fill-opacity="0.6" d="m23.60679774997898,27.751455142577555 l-4.508497187473708,-13.87572757128878 l11.80339887498948,8.5756712576905 l4.508497187473708,13.87572757128878z"/>
<path fill="#08f" fill-opacity="0.6" d="m23.60679774997898,44.90279765795854 l-4.508497187473715,13.87572757128877 l11.803398874989487,-8.575671257690495 l4.508497187473715,-13.87572757128877z"/>
<path fill="#0035f3" fill-opacity="0.6" d="m19.098300562505266,-58.77852522924731 l14.589803375031543,0.0 l4.508497187473715,-13.875727571288778 l-14.589803375031543,-0.0z"/>
<path fill="#0035f3" fill-opacity="0.6" d="m19.098300562505266,58.77852522924731 l14.589803375031543,0.0 l4.508497187473715,13.875727571288778 l-14.589803375031543,-0.0z"/>
<path fill="#08f" fill-opacity="0.6" d="m33.68810393753681,-58.77852522924731 l11.80339887498949,8.575671257690502 l-14.589803375031547,-7.105427357601002e-15 l-11.80339887498949,-8.575671257690502z"/>
<path fill="#08f" fill-opacity="0.6" d="m33.68810393753681,58.77852522924731 l11.80339887498949,-8.575671257690502 l-14.589803375031547,7.105427357601002e-15 l-11.80339887498949,8.575671257690502z"/>
<path fill="#08f" fill-opacity="0.6" d="m35.410196624968464,-81.22992405822657 l-11.80339887498949,8.575671257690487 l14.58980337503155,0.0 l11.80339887498949,-8.575671257690487z"/>
<path fill="#08f" fill-opacity="0.6" d="m35.410196624968464,-8.575671257690495 l14.58980337503155,0.0 l-11.803398874989483,8.575671257690495 l-14.58980337503155,-0.0z"/>
<path fill="#08f" fill-opacity="0.6" d="m35.410196624968464,8.575671257690495 l14.58980337503155,0.0 l-11.803398874989483,-8.575671257690495 l-14.58980337503155,-0.0z"/>
<path fill="#08f" fill-opacity="0.6" d="m35.410196624968464,81.22992405822657 l-11.80339887498949,-8.575671257690487 l14.58980337503155,0.0 l11.80339887498949,8.575671257690487z"/>
<path fill="#0035f3" fill-opacity="0.6" d="m50.00000000000001,-81.22992405822657 l-14.589803375031543,0.0 l-4.5084971874737185,-13.875727571288778 l14.589803375031543,-0.0z"/>
<path fill="#0035f3" fill-opacity="0.6" d="m50.00000000000001,81.22992405822657 l-14.589803375031543,0.0 l-4.5084971874737185,13.875727571288778 l14.589803375031543,-0.0z"/>
<path fill="#0035f3" fill-opacity="0.6" d="m50.000000000000014,-36.327126400268035 l-4.508497187473715,-13.87572757128877 l-14.589803375031547,-7.105427357601002e-15 l4.508497187473715,13.87572757128877z"/>
<path fill="#0035f3" fill-opacity="0.6" d="m50.000000000000014,-36.327126400268035 l-4.508497187473722,13.875727571288767 l-14.58980337503154,-7.105427357601002e-15 l4.508497187473722,-13.875727571288767z"/>
<path fill="#0035f3" fill-opacity="0.6" d="m50.000000000000014,-8.575671257690495 l-14.58980337503155,0.0 l-4.508497187473711,-13.875727571288781 l14.58980337503155,-0.0z"/>
<path fill="#0035f3" fill-opacity="0.6" d="m50.000000000000014,8.575671257690495 l-14.58980337503155,0.0 l-4.508497187473711,13.875727571288781 l14.58980337503155,-0.0z"/>
<path fill="#0035f3" fill-opacity="0.6" d="m50.000000000000014,36.327126400268035 l-4.508497187473722,-13.875727571288767 l-14.58980337503154,7.105427357601002e-15 l4.508497187473722,13.875727571288767z"/>
<path fill="#0035f3" fill-opacity="0.6" d="m50.000000000000014,36.327126400268035 l-4.508497187473715,13.87572757128877 l-14.589803375031547,7.105427357601002e-15 l4.508497187473715,-13.87572757128877z"/>
<path fill="#0035f3" fill-opacity="0.6" d="m45.4915028125263,-50.202853971556806 l-11.80339887498949,-8.575671257690502 l4.508497187473715,-13.875727571288778 l11.80339887498949,8.575671257690502z"/>
<path fill="#0035f3" fill-opacity="0.6" d="m45.4915028125263,50.202853971556806 l-11.80339887498949,8.575671257690502 l4.508497187473715,13.875727571288778 l11.80339887498949,-8.575671257690502z"/>
<path fill="#0035f3" fill-opacity="0.6" d="m61.80339887498949,-72.65425280053609 l-11.803398874989476,8.575671257690502 l-11.80339887498949,-8.575671257690502 l11.803398874989476,-8.575671257690502z"/>
<path fill="#08f" fill-opacity="0.6" d="m45.49150281252629,-22.45139882897927 l4.508497187473722,13.875727571288774 l4.508497187473708,-13.87572757128877 l-4.508497187473722,-13.875727571288774z"/>
<path fill="#08f" fill-opacity="0.6" d="m45.49150281252629,22.45139882897927 l4.508497187473722,-13.875727571288774 l4.508497187473708,13.87572757128877 l-4.508497187473722,13.875727571288774z"/>
<path fill="#0035f3" fill-opacity="0.6" d="m61.80339887498949,72.65425280053609 l-11.803398874989476,-8.575671257690502 l-11.80339887498949,8.575671257690502 l11.803398874989476,8.575671257690502z"/>
<path fill="#0035f3" fill-opacity="0.6" d="m61.803398874989504,0.0 l-11.80339887498949,8.575671257690495 l-11.803398874989483,-8.575671257690495 l11.80339887498949,-8.575671257690495z"/>
<path fill="#08f" fill-opacity="0.6" d="m50.000000000000014,-64.07858154284558 l-4.508497187473715,13.875727571288778 l11.80339887498949,-8.575671257690502 l4.508497187473715,-13.875727571288778z"/>
<path fill="#0035f3" fill-opacity="0.6" d="m50.000000000000014,-36.327126400268035 l-4.508497187473715,-13.87572757128877 l11.80339887498949,-8.575671257690502 l4.508497187473715,13.87572757128877z"/>
<path fill="#0035f3" fill-opacity="0.6" d="m50.000000000000014,36.327126400268035 l-4.508497187473715,13.87572757128877 l11.80339887498949,8.575671257690502 l4.508497187473715,-13.87572757128877z"/>
<path fill="#08f" fill-opacity="0.6" d="m50.000000000000014,64.07858154284558 l-4.508497187473715,-13.875727571288778 l11.80339887498949,8.575671257690502 l4.508497187473715,13.875727571288778z"/>
<path fill="#08f" fill-opacity="0.6" d="m61.80339887498949,-27.751455142577548 l4.508497187473715,13.875727571288772 l-11.803398874989483,-8.57567125769049 l-4.508497187473715,-13.875727571288772z"/>
<path fill="#08f" fill-opacity="0.6" d="m61.80339887498949,27.751455142577548 l4.508497187473715,-13.875727571288772 l-11.803398874989483,8.57567125769049 l-4.508497187473715,13.875727571288772z"/>
<path fill="#0035f3" fill-opacity="0.6" d="m61.803398874989504,-0.0 l-11.80339887498949,-8.575671257690495 l4.508497187473708,-13.87572757128877 l11.80339887498949,8.575671257690495z"/>
<path fill="#0035f3" fill-opacity="0.6" d="m61.803398874989504,0.0 l-11.80339887498949,8.575671257690495 l4.508497187473708,13.87572757128877 l11.80339887498949,-8.575671257690495z"/>
<path fill="#08f" fill-opacity="0.6" d="m66.3118960624632,-58.77852522924731 l-4.508497187473715,-13.875727571288778 l-4.508497187473701,13.875727571288778 l4.508497187473715,13.875727571288778z"/>
<path fill="#0035f3" fill-opacity="0.6" d="m50.000000000000014,-36.327126400268035 l11.803398874989476,8.575671257690487 l11.80339887498949,-8.575671257690502 l-11.803398874989476,-8.575671257690487z"/>
<path fill="#0035f3" fill-opacity="0.6" d="m50.000000000000014,36.327126400268035 l11.803398874989476,-8.575671257690487 l11.80339887498949,8.575671257690502 l-11.803398874989476,8.575671257690487z"/>
<path fill="#08f" fill-opacity="0.6" d="m66.3118960624632,58.77852522924731 l-4.508497187473715,13.875727571288778 l-4.508497187473701,-13.875727571288778 l4.508497187473715,-13.875727571288778z"/>
<path fill="#0035f3" fill-opacity="0.6" d="m66.3118960624632,-13.875727571288776 l11.803398874989483,-8.575671257690493 l-4.508497187473708,-13.875727571288781 l-11.803398874989483,8.575671257690493z"/>
<path fill="#0035f3" fill-opacity="0.6" d="m66.3118960624632,13.875727571288776 l11.803398874989483,8.575671257690493 l-4.508497187473708,13.875727571288781 l-11.803398874989483,-8.575671257690493z"/>
<path fill="#0035f3" fill-opacity="0.6" d="m61.80339887498949,-72.65425280053609 l4.508497187473715,13.875727571288778 l14.589803375031536,-7.105427357601002e-15 l-4.508497187473715,-13.875727571288778z"/>
<path fill="#0035f3" fill-opacity="0.6" d="m61.80339887498949,-44.90279765795853 l4.508497187473715,-13.875727571288778 l14.589803375031536,-7.105427357601002e-15 l-4.508497187473715,13.875727571288778z"/>
<path fill="#0035f3" fill-opacity="0.6" d="m61.80339887498949,44.90279765795853 l4.508497187473715,13.875727571288778 l14.589803375031536,7.105427357601002e-15 l-4.508497187473715,-13.875727571288778z"/>
<path fill="#0035f3" fill-opacity="0.6" d="m61.80339887498949,72.65425280053609 l4.508497187473715,-13.875727571288778 l14.589803375031536,7.105427357601002e-15 l-4.508497187473715,13.875727571288778z"/>
<path fill="#0035f3" fill-opacity="0.6" d="m61.803398874989504,-0.0 l14.58980337503153,0.0 l4.508497187473722,-13.875727571288774 l-14.58980337503153,-0.0z"/>
<path fill="#0035f3" fill-opacity="0.6" d="m61.803398874989504,0.0 l14.58980337503153,0.0 l4.508497187473722,13.875727571288774 l-14.58980337503153,-0.0z"/>
<path fill="#08f" fill-opacity="0.6" d="m76.39320225002103,-44.902797657958544 l11.803398874989483,8.575671257690502 l-14.589803375031536,-7.105427357601002e-15 l-11.803398874989483,-8.575671257690502z"/>
<path fill="#08f" fill-opacity="0.6" d="m76.39320225002103,44.902797657958544 l11.803398874989483,-8.575671257690502 l-14.589803375031536,7.105427357601002e-15 l-11.803398874989483,8.575671257690502z"/>
<path fill="#08f" fill-opacity="0.6" d="m78.11529493745269,-22.45139882897927 l-11.803398874989483,8.575671257690493 l14.58980337503155,1.7763568394002505e-15 l11.803398874989483,-8.575671257690493z"/>
<path fill="#08f" fill-opacity="0.6" d="m78.11529493745269,22.45139882897927 l-11.803398874989483,-8.575671257690493 l14.58980337503155,-1.7763568394002505e-15 l11.803398874989483,8.575671257690493z"/>
<path fill="#0035f3" fill-opacity="0.6" d="m92.70509831248422,-22.451398828979265 l-14.589803375031536,-3.552713678800501e-15 l-4.508497187473708,-13.875727571288781 l14.589803375031536,3.552713678800501e-15z"/>
<path fill="#0035f3" fill-opacity="0.6" d="m92.70509831248422,22.451398828979265 l-14.589803375031536,3.552713678800501e-15 l-4.508497187473708,13.875727571288781 l14.589803375031536,-3.552713678800501e-15z"/>
<path fill="#0035f3" fill-opacity="0.6" d="m88.19660112501052,-36.32712640026804 l4.508497187473708,-13.875727571288778 l-11.803398874989483,-8.575671257690495 l-4.508497187473708,13.875727571288778z"/>
<path fill="#0035f3" fill-opacity="0.6" d="m88.19660112501052,36.32712640026804 l4.508497187473708,13.875727571288778 l-11.803398874989483,8.575671257690495 l-4.508497187473708,-13.875727571288778z"/>
<path fill="#08f" fill-opacity="0.6" d="m88.19660112501052,-8.575671257690493 l4.508497187473708,-13.875727571288772 l-11.803398874989469,8.575671257690491 l-4.508497187473708,13.875727571288772z"/>
<path fill="#08f" fill-opacity="0.6" d="m88.19660112501052,8.575671257690493 l4.508497187473708,13.875727571288772 l-11.803398874989469,-8.575671257690491 l-4.508497187473708,-13.875727571288772z"/>
<path fill="#0035f3" fill-opacity="0.6" d="m76.39320225002103,0.0 l11.803398874989483,8.575671257690493 l11.803398874989483,-8.575671257690493 l-11.803398874989483,-8.575671257690493z"/>
<path fill="#08f" fill-opacity="0.6" d="m92.70509831248422,-50.20285397155682 l-4.508497187473708,13.875727571288778 l11.803398874989483,-8.575671257690502 l4.508497187473708,-13.875727571288778z"/>
<path fill="#0035f3" fill-opacity="0.6" d="m92.70509831248422,-22.451398828979265 l11.803398874989497,-8.575671257690495 l-4.508497187473722,-13.875727571288785 l-11.803398874989497,8.575671257690495z"/>
<path fill="#0035f3" fill-opacity="0.6" d="m92.70509831248422,-22.451398828979265 l11.803398874989497,8.575671257690491 l-4.508497187473722,13.875727571288774 l-11.803398874989497,-8.575671257690491z"/>
<path fill="#0035f3" fill-opacity="0.6" d="m92.70509831248422,22.451398828979265 l11.803398874989497,-8.575671257690491 l-4.508497187473722,-13.875727571288774 l-11.803398874989497,8.575671257690491z"/>
<path fill="#0035f3" fill-opacity="0.6" d="m92.70509831248422,22.451398828979265 l11.803398874989497,8.575671257690495 l-4.508497187473722,13.875727571288785 l-11.803398874989497,-8.575671257690495z"/>
<path fill="#08f" fill-opacity="0.6" d="m92.70509831248422,50.20285397155682 l-4.508497187473708,-13.875727571288778 l11.803398874989483,8.575671257690502 l4.508497187473708,13.875727571288778z"/>
<path fill="#08f" fill-opacity="0.6" d="m104.50849718747372,-31.02707008666976 l14.58980337503155,0.0 l-11.803398874989497,8.575671257690495 l-14.58980337503155,-0.0z"/>
<path fill="#08f" fill-opacity="0.6" d="m104.50849718747372,-13.875727571288774 l-11.803398874989497,-8.575671257690491 l14.58980337503155,0.0 l11.803398874989497,8.575671257690491z"/>
<path fill="#08f" fill-opacity="0.6" d="m104.50849718747372,13.875727571288774 l-11.803398874989497,8.575671257690491 l14.58980337503155,0.0 l11.803398874989497,-8.575671257690491z"/>
<path fill="#08f" fill-opacity="0.6" d="m104.50849718747372,31.02707008666976 l14.58980337503155,0.0 l-11.803398874989497,-8.575671257690495 l-14.58980337503155,-0.0z"/>
<path fill="#0035f3" fill-opacity="0.6" d="m119.09830056250527,-31.02707008666976 l-14.58980337503155,0.0 l-4.508497187473722,-13.875727571288785 l14.58980337503155,-0.0z"/>
<path fill="#0035f3" fill-opacity="0.6" d="m119.09830056250527,-13.875727571288774 l-14.58980337503155,0.0 l-4.508497187473722,13.875727571288774 l14.58980337503155,-0.0z"/>
<path fill="#0035f3" fill-opacity="0.6" d="m119.09830056250527,13.875727571288774 l-14.58980337503155,0.0 l-4.508497187473722,-13.875727571288774 l14.58980337503155,-0.0z"/>
<path fill="#0035f3" fill-opacity="0.6" d="m119.09830056250527,31.02707008666976 l-14.58980337503155,0.0 l-4.508497187473722,13.875727571288785 l14.58980337503155,-0.0z"/>
<path fill="#08f" fill-opacity="0.6" d="m114.58980337503155,0.0 l4.508497187473722,13.875727571288774 l4.508497187473694,-13.875727571288774 l-4.508497187473722,-13.875727571288774z"/>
<path fill="#0035f3" fill-opacity="0.6" d="m130.90169943749476,-22.451398828979265 l-11.803398874989483,-8.575671257690495 l-11.803398874989497,8.575671257690495 l11.803398874989483,8.575671257690495z"/>
<path fill="#0035f3" fill-opacity="0.6" d="m130.90169943749476,22.451398828979265 l-11.803398874989483,8.575671257690495 l-11.803398874989497,-8.575671257690495 l11.803398874989483,-8.575671257690495z"/>
<path fill="#0035f3" fill-opacity="0.6" d="m130.90169943749476,-22.451398828979265 l4.508497187473722,13.875727571288772 l-11.803398874989512,8.575671257690493 l-4.508497187473722,-13.875727571288772z"/>
<path fill="#0035f3" fill-opacity="0.6" d="m130.90169943749476,22.451398828979265 l4.508497187473722,-13.875727571288772 l-11.803398874989512,-8.575671257690493 l-4.508497187473722,13.875727571288772z"/>
<path fill="#0035f3" fill-opacity="0.6" d="m147.21359549995793,0.0 l-11.803398874989455,8.575671257690493 l-11.803398874989512,-8.575671257690493 l11.803398874989455,-8.575671257690493z"/>
<path fill="#08f" fill-opacity="0.6" d="m135.41019662496848,-8.575671257690493 l11.803398874989455,8.575671257690493 l-4.508497187473694,-13.875727571288774 l-11.803398874989455,-8.575671257690493z"/>
<path fill="#08f" fill-opacity="0.6" d="m135.41019662496848,8.575671257690493 l11.803398874989455,-8.575671257690493 l-4.508497187473694,13.875727571288774 l-11.803398874989455,8.575671257690493z"/>
<path fill="#0035f3" fill-opacity="0.6" d="m161.80339887498948,-0.0 l-14.58980337503155,0.0 l-4.508497187473694,-13.875727571288774 l14.58980337503155,-0.0z"/>
<path fill="#0035f3" fill-opacity="0.6" d="m161.80339887498948,0.0 l-14.58980337503155,0.0 l-4.508497187473694,13.875727571288774 l14.58980337503155,-0.0z"/>
</g>
</svg>